<?xml version="1.0" encoding="UTF-8" standalone="no"?>
<svg width="1366px" height="768px" viewBox="0 0 1366 768" version="1.1" xmlns="http://www.w3.org/2000/svg" xmlns:xlink="http://www.w3.org/1999/xlink" >
    <title>submarine</title>
    <g id="Page-1" stroke="none" stroke-width="1" fill="none" fill-rule="evenodd" >
        <g id="submarine">
            <rect id="Rectangle-9" fill="#617492"  x="0" y="0" width="1366" height="768"></rect>
            <g id="Submarine"  transform="translate(414.000000, 214.000000)">
                <g id="body" >
                    <g id="Periscope" transform="translate(238.000000, 0.000000)">
                        <rect id="Rectangle-11" fill="#E26A6F" x="0" y="5" width="18" height="81"></rect>
                        <path d="M0,5 L53.9457932,0.182200909 L53.9457932,27.7685847 L0,24 L0,5 Z" id="Rectangle-12" fill="#F18085"></path>
                    </g>
                    <path d="M68.4512504,192.722948 L68.2214491,192.682667 L42.4574319,158.685841 L39.1877254,161.061421 L44.3458985,167.930458 L64.7346837,194.703262 C64.7346837,194.703262 60.9643123,198.970291 54.9709481,203.012866 C38.9394756,213.826231 16.1502298,208.073224 6.35706019,193.554253 C-3.43610944,179.035282 -0.233202887,155.750346 15.7982695,144.936982 L23.2865152,139.886096 L31.0436693,150.216144 L31.0436693,150.216144 L34.2650816,147.875651 L34.2650816,147.875651 L26.1522911,137.170444 L42.4360184,131.921433 L61.0237487,125.630681 L61.1948172,125.87459 L86.3859435,117.754306 C86.3859435,117.754306 129.549949,105.784599 183.572936,93.5315852 C180.722922,79.4159376 179.880571,62.3845787 189.810298,55.3595741 C208.11679,42.4082425 301.589824,42.2178679 322.493225,55.3595741 C327.18244,58.3076247 329.767812,62.9480184 330.957267,68.3731213 C339.308255,67.7635157 347.110853,67.4638479 354.192089,67.5366904 C481.773695,68.8490836 506.418973,124.043618 496.81976,165.388663 C487.220548,206.733707 441.914772,235.572694 354.192093,234.670318 C316.838342,234.286071 139.473447,205.172003 139.473447,205.172003 L113.634294,200.642813 L113.672949,200.697926 L68.464691,192.740738 L68.4512504,192.722948 Z" id="Submarine_body" fill="#F18085"></path>
                    <path d="M495.635398,164.744163 C485.494798,205.503215 440.217875,233.826663 353.270684,232.932264 C315.916933,232.548017 138.552038,203.433949 138.552038,203.433949 L112.712885,198.904759 L112.712885,198.904759 L112.751539,198.959872 L67.5432818,191.002684 L67.5298412,190.984894 L67.3000398,190.944614 L47.4443967,164.744163 L495.635398,164.744163 Z" id="submarine_body_shade" fill="#E26A6F"></path>
                    <g id="lights" transform="translate(251.737184, 73.224560) scale(-1, 1) translate(-251.737184, -73.224560) translate(204.237184, 61.224560)">
                        <rect id="light_container" fill="#E26A6F" x="0" y="0" width="94.9117647" height="23.9652174" rx="8"></rect>
                        <ellipse id="light_right" fill="#D8D8D8" cx="16.5853659" cy="11.9006845" rx="4.60704607" ry="4.60869565"></ellipse>
                        <ellipse id="light_right_first_left" fill="#D8D8D8" cx="31.3279133" cy="11.9006845" rx="4.60704607" ry="4.60869565"></ellipse>
                        <ellipse id="light_center" fill="#D8D8D8" cx="46.0704607" cy="11.9006845" rx="4.60704607" ry="4.60869565"></ellipse>
                        <ellipse id="light_left_next_right" fill="#D8D8D8" cx="61.7344173" cy="11.9006845" rx="4.60704607" ry="4.60869565"></ellipse>
                        <ellipse id="light_left" fill="#D8D8D8" cx="77.398374" cy="11.9006845" rx="4.60704607" ry="4.60869565"></ellipse>
                    </g>
                    <g id="head_light" transform="translate(469.000000, 198.000000)">
                        <path d="M20.1367731,34.8971492 L36.5113306,8.65984315 L3230.72344,868.668022 L1696.97454,2593.63299 L20.1367731,34.8971492 Z" id="light" fill="#8D9DB7"></path>
                        <path d="M15.0012314,32.7598082 L21.1954532,36.1573178 L29.0077937,22.2112694 L36.8201342,8.26522101 L30.6259124,4.86771142 C19.1983963,-1.4002424 6.43686004,-0.237564377 2.1222235,7.46462546 C-2.19241303,15.1668153 3.57371521,26.4918543 15.0012314,32.7598082 L15.0012314,32.7598082 Z" id="light_emitter" fill="#F67C81"></path>
                    </g>
                    <g id="window" transform="translate(422.974221, 151.801013) rotate(105.000000) translate(-422.974221, -151.801013) translate(364.474221, 93.301013)">
                        <ellipse id="glass" stroke="#B1B1B1" stroke-width="8" fill="#4D576D" transform="translate(58.509485, 58.448511) scale(-1, 1) translate(-58.509485, -58.448511) " cx="58.5094851" cy="58.4485106" rx="57.5880759" ry="57.6086957"></ellipse>
                        <path d="M58.9701897,4.61592754 C58.6758133,4.61111246 58.3808588,4.60869565 58.0853443,4.60869565 C28.5500958,4.60869565 4.60704607,28.7502806 4.60704607,58.5304348 C4.60704607,88.310589 28.5500958,112.452174 58.0853443,112.452174 C58.3808588,112.452174 58.6758133,112.449757 58.9701897,112.444942 L58.9701897,4.61592754 Z" id="glass_shade" fill="#414B5F"></path>
                    </g>
                    <g id="fan_container" transform="translate(203.000000, 130.000000)">
                        <ellipse id="container" stroke="#FF868B" stroke-width="7" fill="#EF7378" cx="34.2628726" cy="34.2832932" rx="33.6314363" ry="33.6434783"></ellipse>
                        <path d="M41.5386329,37.3392857 L63.5624248,28.534402 L59.3750415,18.2789423 L37.3512496,27.083826 L28.4530602,5.29097419 L18.0889228,9.43444885 L26.9871123,31.2273007 L4.96332048,40.0321843 L9.15070377,50.287644 L31.1744956,41.4827603 L40.0726851,63.2756122 L50.4368224,59.1321375 L41.5386329,37.3392857 L41.5386329,37.3392857 Z" id="fan" fill="#FFFFFF"></path>
                    </g>
                </g>
            </g>
            <circle id="Buddle_medium" fill="#73849E"  cx="343.5" cy="398.5" r="14.5"></circle>
            <ellipse id="Bubble_large" fill="#73849E"  cx="252.5" cy="349.5" rx="20.5" ry="18.5"></ellipse>
            <circle id="bubble_small" fill="#73849E"  cx="413.5" cy="349.5" r="10.5"></circle>
            <g id="wave_bottom-+-wave_bottom-2-+-wave_top"  transform="translate(0.000000, 533.000000)" fill-opacity="0.23680933" fill="#3E4A5D">
                <path d="M0,50 C0,50 101.748118,0.54467392 150.517044,0.54467392 C238.588591,0.54467392 248.86461,50 336.936157,50 C382.922767,50 446.145501,0.54467392 492.132111,0.54467392 C560.583282,0.54467392 611.79833,50 680.249502,50 C750.322273,50 796.112348,0.54467392 866.18512,0.54467392 C933.203386,0.54467392 1024.50435,50 1091.52262,50 C1126.65335,50 1186.82154,0.54467392 1221.95227,0.54467392 C1278.314,0.54467392 1366,50 1366,50 L1366,235 L0,235 L0,50 Z" id="wave_bottom"  ></path>
                <path d="M1361,54 C1361,54 1462.74812,4.54467392 1511.51704,4.54467392 C1599.58859,4.54467392 1609.86461,54 1697.93616,54 C1743.92277,54 1807.1455,4.54467392 1853.13211,4.54467392 C1921.58328,4.54467392 1972.79833,54 2041.2495,54 C2111.32227,54 2157.11235,4.54467392 2227.18512,4.54467392 C2294.20339,4.54467392 2385.50435,54 2452.52262,54 C2487.65335,54 2547.82154,4.54467392 2582.95227,4.54467392 C2639.314,4.54467392 2727,54 2727,54 L2727,239 L1361,239 L1361,54 Z" id="wave_bottom-2"  ></path>
                <path d="M0,120 C0,120 149.195813,70.5446739 220.70691,70.5446739 C349.848425,70.5446739 364.916408,120 494.057923,120 C561.489241,120 654.194317,70.5446739 721.625635,70.5446739 C821.997301,70.5446739 897.095209,120 997.466875,120 C1100.21633,120 1167.35947,70.5446739 1270.10893,70.5446739 C1368.37949,70.5446739 1502.25638,120 1600.52694,120 C1652.04001,120 1740.26613,70.5446739 1791.77921,70.5446739 C1874.42382,70.5446739 2003,120 2003,120 L2003,305 L0,305 L0,120 Z" id="wave_top"  ></path>
            </g>
        </g>
    </g>
</svg>